<svg xmlns="http://www.w3.org/2000/svg" width="32" height="32" viewBox="0 0 32 32">
  <!-- Background circle -->
  <circle cx="16" cy="16" r="16" fill="#FBBF24"/>
  <!-- Cup body -->
  <rect x="7" y="11" width="14" height="13" rx="2.5" fill="#FFFFFF" stroke="#92400E" stroke-width="1.5"/>
  <!-- Coffee fill -->
  <rect x="8.5" y="14" width="11" height="8" rx="1.5" fill="#A0845C"/>
  <!-- Cup handle -->
  <path d="M21 14c1.8 0 3.2 1.2 3.2 3s-1.4 3-3.2 3" stroke="#92400E" stroke-width="1.5" stroke-linecap="round" fill="none"/>
  <!-- Steam -->
  <path d="M12 9.5c0-1.5 1.5-2 1.5-3" stroke="#92400E" stroke-width="1" stroke-linecap="round" fill="none" opacity="0.6"/>
  <path d="M16 9c0-1.5 1.5-2 1.5-3" stroke="#92400E" stroke-width="1" stroke-linecap="round" fill="none" opacity="0.6"/>
  <!-- Heart in coffee -->
  <path d="M13 17.5c0-.6.5-1.1 1.1-1.1s1.1.5 1.1 1.1c0-.6.5-1.1 1.1-1.1s1.1.5 1.1 1.1c0 1.2-2.2 2.2-2.2 2.2s-2.2-1-2.2-2.2z" fill="#E85D75" opacity="0.8"/>
</svg>
